<svg xmlns="http://www.w3.org/2000/svg" xmlns:xlink="http://www.w3.org/1999/xlink" viewBox="0 0 396.89 214"><defs><style>.cls-1{fill:url(#linear-gradient);}.cls-2{fill:url(#linear-gradient-2);}.cls-3{fill:url(#linear-gradient-3);}.cls-4,.cls-5{fill:#e8e8e8;}.cls-5{font-size:78px;font-family:Nunito-Regular, Nunito;letter-spacing:0.11em;}.cls-6{letter-spacing:0.1em;}.cls-7{letter-spacing:0.11em;}.cls-8{letter-spacing:0.11em;}</style><linearGradient id="linear-gradient" x1="12.5" y1="39.19" x2="30.72" y2="11.03" gradientUnits="userSpaceOnUse"><stop offset="0" stop-color="#30475e"/><stop offset="0.48" stop-color="#496c8f"/><stop offset="1" stop-color="#30475e"/></linearGradient><linearGradient id="linear-gradient-2" x1="17.49" y1="41.77" x2="42.54" y2="16.05" gradientUnits="userSpaceOnUse"><stop offset="0" stop-color="#f02929"/><stop offset="0.52" stop-color="#f01d1d"/><stop offset="0.75" stop-color="#f02222"/><stop offset="1" stop-color="#f02e2e"/></linearGradient><linearGradient id="linear-gradient-3" x1="29.23" y1="44.41" x2="48.22" y2="27.81" gradientUnits="userSpaceOnUse"><stop offset="0.04" stop-color="#e8e8e8"/><stop offset="0.52" stop-color="#fff"/><stop offset="1" stop-color="#e8e8e8"/></linearGradient></defs><g id="Layer_2" data-name="Layer 2"><g id="Layer_2-2" data-name="Layer 2"><path class="cls-1" d="M35.29,2.32c2.14,19.4-9.84,37.83-29,44.51A26.75,26.75,0,0,1,1,41.64C18.25,34.67,29.13,17.92,28.08,0A28,28,0,0,1,35.29,2.32Z"/><path class="cls-2" d="M18.87,52A28.11,28.11,0,0,1,9,48.53C28.2,41.89,40.27,23.34,38,3.83a27,27,0,0,1,7.61,7.08C46.49,28.55,35.79,45,18.87,52Z"/><path class="cls-3" d="M29.3,51.59a28.3,28.3,0,0,1-4.6.65,42.6,42.6,0,0,0,23.74-36.4,24.56,24.56,0,0,1,1.37,4.09C53.25,34.11,44.07,48.29,29.3,51.59Z"/><path class="cls-4" d="M5.19,127V119.5h6.93c1.29,0,3.86-.74,3.86-4.68V73.51A3,3,0,0,0,12.9,70.3H5.06v-7l24.67-2.09v53.64c0,3.45,1.41,4.68,4,4.68h7.07V127Z"/><path class="cls-4" d="M92.64,115.88c0,2.36,1.58,3.21,4.14,3.21h8.46V127H62.82v-7.93h9.05c3.55,0,3.75-3.12,3.75-5.86V73c0-2-1.68-3.22-3.75-3.22H62.82v-8h49.71c14.86,0,27.46,5.85,27.46,18.79,0,10.49-9.15,18.61-22.44,18.61H92.64Zm0-24.56h16.54c8.27,0,13.39-4.82,13.39-11,0-7.08-6.11-10.58-15.46-10.58H92.64Z"/><path class="cls-4" d="M169.86,79.62c17.85,0,29.57,9.58,29.57,24.13s-11.58,24.46-30.25,24.46c-16.61,0-29.64-9.19-29.64-24.06C139.54,89.53,150,79.62,169.86,79.62Zm-.62,42.77c14.13,0,16.82-9.65,16.82-18.44s-2.41-18.58-16.4-18.58c-14.2,0-17.16,10-17.16,18.64S155.26,122.39,169.24,122.39Z"/><path class="cls-4" d="M224.85,119.22c0,1.65,1.17,2.25,2.89,2.25h6.07V127H204v-5.55h6.34a2.42,2.42,0,0,0,2.62-2.32V89.2A2.37,2.37,0,0,0,210.38,87H204V81.34h29.77V87h-6.07c-1.72,0-2.89.59-2.89,2.24Z"/><path class="cls-4" d="M248.13,119.15V89.27c0-1.06-1-2.31-2.89-2.31h-6.06V81.34h20.6L287.9,114V89.4c0-2.05-1.24-2.44-3.31-2.44h-5.45V81.34H304V87h-6.06c-1.66,0-2.83.66-2.83,2.38V127h-9.71L255.3,93v26.25c0,1.65,1.17,2.25,2.9,2.25h6V127h-25v-5.55h6.34A2.41,2.41,0,0,0,248.13,119.15Z"/><path class="cls-4" d="M340,119.22c0,1.65,1.17,2.25,2.9,2.25h6V127h-29.7v-5.55h6.27a2.48,2.48,0,0,0,2.69-2.32v-32h-5.44c-8.41,0-9,5.62-9.72,11.84H307V81.34h54.24V99h-5.86c-.76-6.28-1.38-11.84-9.86-11.84H340Z"/><text class="cls-5" transform="translate(0 192.55) scale(0.8 1)">A<tspan class="cls-6" x="65.52" y="0">D</tspan><tspan class="cls-7" x="130.73" y="0">VISO</tspan><tspan class="cls-8" x="347.57" y="0">R</tspan><tspan x="409.81" y="0">S </tspan></text></g></g></svg>